<?xml version="1.0" standalone="no"?>
<!DOCTYPE svg PUBLIC "-//W3C//DTD SVG 20010904//EN"
 "http://www.w3.org/TR/2001/REC-SVG-20010904/DTD/svg10.dtd">
<svg version="1.0" xmlns="http://www.w3.org/2000/svg"
 width="1176.000000pt" height="1176.000000pt" viewBox="0 0 1176.000000 1176.000000"
 preserveAspectRatio="xMidYMid meet">
<metadata>
Created by potrace 1.14, written by Peter Selinger 2001-2017
</metadata>
<g transform="translate(0.000000,1176.000000) scale(0.100000,-0.100000)"
fill="#000000" stroke="none">
<path d="M4620 7350 l0 -210 -1260 0 -1260 0 0 -210 0 -210 -210 0 -210 0 0
-210 0 -210 -210 0 -210 0 0 -210 0 -210 -210 0 -210 0 0 -420 0 -420 -210 0
-210 0 0 -420 0 -420 210 0 210 0 0 -840 0 -840 4830 0 4830 0 0 420 0 420
-210 0 -210 0 0 210 0 210 -210 0 -210 0 0 1050 0 1050 -210 0 -210 0 0 210 0
210 -210 0 -210 0 0 210 0 210 -420 0 -420 0 0 210 0 210 -630 0 -630 0 0 210
0 210 -1050 0 -1050 0 0 -210z m2100 -420 l0 -210 630 0 630 0 0 -210 0 -210
420 0 420 0 0 -210 0 -210 210 0 210 0 0 -1050 0 -1050 210 0 210 0 0 -210 0
-210 210 0 210 0 0 -210 0 -210 -420 0 -420 0 0 210 0 210 -210 0 -210 0 0
-210 0 -210 -1050 0 -1050 0 0 840 0 840 -210 0 -210 0 0 210 0 210 -210 0
-210 0 0 -420 0 -420 210 0 210 0 0 -210 0 -210 -420 0 -420 0 0 -210 0 -210
420 0 420 0 0 -210 0 -210 -2520 0 -2520 0 0 210 0 210 210 0 210 0 0 210 0
210 -210 0 -210 0 0 210 0 210 -210 0 -210 0 0 210 0 210 210 0 210 0 0 630 0
630 210 0 210 0 0 210 0 210 210 0 210 0 0 210 0 210 1260 0 1260 0 0 210 0
210 1050 0 1050 0 0 -210z"/>
<path d="M2940 5460 l0 -420 210 0 210 0 0 420 0 420 -210 0 -210 0 0 -420z"/>
<path d="M4200 5670 l0 -210 210 0 210 0 0 -210 0 -210 -420 0 -420 0 0 -420
0 -420 210 0 210 0 0 210 0 210 210 0 210 0 0 -420 0 -420 -210 0 -210 0 0
-210 0 -210 210 0 210 0 0 210 0 210 210 0 210 0 0 840 0 840 -210 0 -210 0 0
210 0 210 -210 0 -210 0 0 -210z"/>
<path d="M2940 4200 l0 -420 210 0 210 0 0 420 0 420 -210 0 -210 0 0 -420z"/>
</g>
</svg>
